<svg xmlns="http://www.w3.org/2000/svg" viewBox="0 0 40 40"><defs><style>.cls-1{fill:#77c6db;}</style></defs><title>Asset 4</title><g id="Layer_2" data-name="Layer 2"><g id="Layer_1-2" data-name="Layer 1"><path class="cls-1" d="M22,1A17,17,0,0,1,39,18V22A17,17,0,0,1,22,39H18A17,17,0,0,1,1,22V18A17,17,0,0,1,18,1H22m0-1H18A18,18,0,0,0,0,18V22A18,18,0,0,0,18,40H22A18,18,0,0,0,40,22V18A18,18,0,0,0,22,0Z"/><path class="cls-1" d="M19.26,27.14h1.48v-6.4h6.4V19.26h-6.4v-6.4H19.26v6.4h-6.4v1.48h6.4Z"/></g></g></svg>