<svg xmlns="http://www.w3.org/2000/svg" viewBox="0 0 40 40"><defs><style>.cls-1{fill:#77c6db;}</style></defs><title>Asset 6</title><g id="Layer_2" data-name="Layer 2"><g id="Layer_1-2" data-name="Layer 1"><path class="cls-1" d="M22,1A17.05,17.05,0,0,1,39,18V22A17.05,17.05,0,0,1,22,39H18A17.05,17.05,0,0,1,1,22V18A17.05,17.05,0,0,1,18,1H22m0-1H18A18,18,0,0,0,0,18V22A18,18,0,0,0,18,40H22A18,18,0,0,0,40,22V18A18,18,0,0,0,22,0Z"/><path class="cls-1" d="M27.29,14.54l.4.41L17,25.62l-5.15-5.16,1.35-1.35,2.42,2.63,1.29,1.4,1.46-1.21,8.91-7.39M9,20.47H9Z"/></g></g></svg>