<svg xmlns="http://www.w3.org/2000/svg" viewBox="0 0 40 40"><defs><style>.cls-1{fill:#ea4b57;}</style></defs><title>Asset 5</title><g id="Layer_2" data-name="Layer 2"><g id="Layer_1-2" data-name="Layer 1"><polygon class="cls-1" points="21.05 20 25.57 15.48 24.52 14.43 20 18.95 15.48 14.43 14.43 15.48 18.95 20 14.43 24.52 15.48 25.57 20 21.05 24.52 25.57 25.57 24.52 21.05 20"/><path class="cls-1" d="M20,21l-4.52,4.52-1-1L19,20l-4.52-4.52,1-1L20,19l4.52-4.52,1,1L21,20l4.52,4.52-1,1Z"/><path class="cls-1" d="M22,1A17,17,0,0,1,39,18v4A17,17,0,0,1,22,39H18A17,17,0,0,1,1,22V18A17,17,0,0,1,18,1h4m0-1H18A18,18,0,0,0,0,18v4A18,18,0,0,0,18,40h4A18,18,0,0,0,40,22V18A18,18,0,0,0,22,0Z"/></g></g></svg>