<svg xmlns="http://www.w3.org/2000/svg" viewBox="0 0 40 40"><defs><style>.cls-1{fill:#c3f4af;}</style></defs><title>Asset 7</title><g id="Layer_2" data-name="Layer 2"><g id="Layer_1-2" data-name="Layer 1"><path class="cls-1" d="M22,1A17,17,0,0,1,39,18V22A17,17,0,0,1,22,39H18A17,17,0,0,1,1,22V18A17,17,0,0,1,18,1H22m0-1H18A18,18,0,0,0,0,18V22A18,18,0,0,0,18,40H22A18,18,0,0,0,40,22V18A18,18,0,0,0,22,0Z"/><polygon class="cls-1" points="26.06 20.52 14.78 14.01 14.78 27.04 26.06 20.52 14.78 14.01 14.78 27.04 26.06 20.52"/></g></g></svg>