<svg xmlns="http://www.w3.org/2000/svg" viewBox="0 0 337.89 91"><defs><style>.cls-1{fill:#c3f4af;}.cls-2{fill:#77c6db;}</style></defs><title>Asset 2</title><g id="Layer_2" data-name="Layer 2"><g id="Layer_1-2" data-name="Layer 1"><rect class="cls-1" width="91" height="91" rx="38.09" ry="38.09"/><path class="cls-2" d="M118.46,38.29c-1.57,5-3.45,12.21-3.45,17.93,0,3.58.7,6.5,2.7,6.5,1.66,0,3-1.92,3.4-2.79.17-.48,1-.35.92,0s-1.88,4.23-4.49,4.23c-3.62,0-5.19-3.49-5.19-9a57.76,57.76,0,0,1,2.84-16.31,9.75,9.75,0,0,1-1.48.09c-2.14,0-1.92-2.09-1.13-2.09,0,0,.26.31,1.22.31.57,0,1.27,0,2.05-.09,1.22-3.32,2.66-5.54,3.93-5.54.52,0,.74.31.74.83,0,0-.7,1.74-1.57,4.49,2.35-.26,4.62-.48,5.63-.48.52,0,.52,1-.57,1C123.3,37.38,120.86,37.86,118.46,38.29Z"/><path class="cls-2" d="M142.75,39c-4.84,4.41-9.38,16.49-9.38,17.4a.54.54,0,0,1-.61.57c-1,0-1.31-1.09-1.31-3.49,0-14.57,5-29.36,8.29-29.36a.62.62,0,0,1,.7.7,73.48,73.48,0,0,0-4,12.43c-1,4.36-1.88,9.2-2.44,13.17h.31c2.36-5.8,6.32-13.61,10.86-13.61a1.94,1.94,0,0,1,2.22,2.14s-2.84,8.77-2.84,15.92c0,3.45.48,4.62,1.35,4.62s1.18-.83,1.61-.83.26.44.26.44S146.85,61,145.54,61c-2.31,0-3.58-3.62-3.58-8.55a53.81,53.81,0,0,1,1.92-13.22C144,38.6,143.4,38.38,142.75,39Z"/><path class="cls-2" d="M167.78,37.73c-6.59,0-11.82,19.93-4.45,19.93,3.1,0,5-3.58,5-3.58s.17-.35.83-.35.52.35.52.35-2.44,5.1-6.72,5.1c-11.65,0-5.37-22.55,5.15-22.55,6.37,0,2.92,12.61-4.89,12.61-1.44,0-1.74-.87-1.74-.87C167.21,48.37,171.58,37.73,167.78,37.73Z"/><path class="cls-2" d="M211.69,47h-.57c-2.79,4.89-6.67,10.77-9.07,10.77-7.59,0-2.31-21.16,7.24-21.16a2.9,2.9,0,0,1,2.79,1.88s-.13.74-.79.74-.83-.52-.83-.52a1.61,1.61,0,0,0-1.44-.92c-5.8,0-9.6,18.41-6.54,18.41,2.53,0,9.94-14.44,10.34-15.22,2.09-9,5.58-17,7.55-17a.68.68,0,0,1,.74.74s-7.46,15.83-7.46,31.45c0,3.58.78,6.5,2.83,6.5,1.61,0,3-1.92,3.36-2.79.22-.48,1-.35,1,0s-1.87,4.23-4.54,4.23c-3.93,0-5.19-4.23-5.19-9.77A48.4,48.4,0,0,1,211.69,47Z"/><path class="cls-2" d="M232,56.61c3.32,0,7.42-8.59,7.42-17v-.52c-2-1.27-3.1-3.36-3.1-4.23a2,2,0,0,1,1.66-1.57c1.18,0,2.31,2.49,2.7,4.84a4.76,4.76,0,0,0,2.62.92,2.68,2.68,0,0,0,1.4-.35,1.54,1.54,0,0,1-1.57,1.57,6.42,6.42,0,0,1-2.31-.44c-.09,8.33-4.19,18.36-9.29,18.36-9.73,0-4.58-20.89,3.05-20.89a1.31,1.31,0,0,1,1.35,1C230.09,38.34,226.34,56.61,232,56.61Z"/><path class="cls-2" d="M263.24,42.52a15.67,15.67,0,0,1,.31-3.18A1.76,1.76,0,0,0,261.62,38C255,38,250.2,57.7,257.31,57.7c3.18,0,5-3.53,5-3.53a.78.78,0,0,1,.74-.39c.65,0,.57.39.57.39s-2.4,5-6.63,5c-11.47,0-5.37-22.42,4.75-22.42a2.64,2.64,0,0,1,2.22,1c.65-2.14,1.7-3.79,3-3.79a.65.65,0,0,1,.7.74s-3.27,4.54-3.27,8.24C264.37,43.83,263.24,43.7,263.24,42.52Z"/><path class="cls-2" d="M283.64,24.12a.62.62,0,0,1,.7.7,73.56,73.56,0,0,0-4,12.43c-1,3.93-1.79,8.37-2.35,12.17h.35c2.22-5.71,5.8-12.78,9.95-12.78,5.5,0,3,9.81-2.84,11.69,1.27,1.09,2.49,11.17,5.84,11.17a1.9,1.9,0,0,0,1.74-.83c.79,0-.48,2.31-2.31,2.31-5.15,0-7.55-11.47-8.37-12.61a.94.94,0,0,1-.39-.52c6.19,0,8.85-10,5.84-10-4.36,0-10.51,17.19-10.51,18.58a.55.55,0,0,1-.61.52c-1,0-1.31-1.09-1.31-3.49C275.36,38.9,280.37,24.12,283.64,24.12Z"/><path class="cls-2" d="M311.68,37.73c-6.59,0-11.82,19.93-4.45,19.93,3.1,0,5-3.58,5-3.58s.17-.35.83-.35.52.35.52.35-2.44,5.1-6.72,5.1c-11.65,0-5.37-22.55,5.15-22.55,6.37,0,2.92,12.61-4.88,12.61-1.44,0-1.74-.87-1.74-.87C311.12,48.37,315.48,37.73,311.68,37.73Z"/><path class="cls-2" d="M331.44,38.29c-1.57,5-3.45,12.21-3.45,17.93,0,3.58.7,6.5,2.71,6.5,1.66,0,3-1.92,3.4-2.79.17-.48,1-.35.92,0s-1.88,4.23-4.49,4.23c-3.62,0-5.19-3.49-5.19-9a57.76,57.76,0,0,1,2.84-16.31,9.75,9.75,0,0,1-1.48.09c-2.14,0-1.92-2.09-1.14-2.09,0,0,.26.31,1.22.31.57,0,1.27,0,2.05-.09,1.22-3.32,2.66-5.54,3.93-5.54.52,0,.74.31.74.83,0,0-.7,1.74-1.57,4.49,2.35-.26,4.62-.48,5.63-.48.52,0,.52,1-.57,1C336.28,37.38,333.84,37.86,331.44,38.29Z"/><path class="cls-2" d="M30.55,56.59c3.31,0,7.42-8.59,7.42-17v-.52c-2-1.27-3.1-3.36-3.1-4.23a2,2,0,0,1,1.66-1.57c1.18,0,2.31,2.49,2.7,4.84a4.75,4.75,0,0,0,2.62.92,2.69,2.69,0,0,0,1.4-.35,1.54,1.54,0,0,1-1.57,1.57,6.42,6.42,0,0,1-2.31-.44c-.09,8.33-4.19,18.36-9.29,18.36-9.73,0-4.58-20.89,3.05-20.89a1.31,1.31,0,0,1,1.35,1C28.67,38.31,24.92,56.59,30.55,56.59Z"/><path class="cls-2" d="M61.16,39C56.54,43,51.83,55.72,51.83,56.5a.58.58,0,0,1-.61.52c-1,0-1.4-1.09-1.4-3.45,0-8.33,1.92-17.05,4.54-17.05.52,0,.79.35.79,1A91,91,0,0,0,52.27,50.7h.39C55,44.9,59,36.79,63.61,36.79a1.94,1.94,0,0,1,2.22,2.14S63,47.69,63,54.85c0,3.45.52,4.62,1.35,4.62s1.22-.83,1.66-.83.26.44.26.44S65.31,61,64,61c-2.27,0-3.53-3.62-3.53-8.55A56.6,56.6,0,0,1,62.3,39.19C62.47,38.58,61.86,38.4,61.16,39Z"/></g></g></svg>