<svg xmlns="http://www.w3.org/2000/svg" viewBox="0 0 22.15 22.15"><defs><style>.cls-1{fill:#77c6db;}</style></defs><title>Asset 10</title><g id="Layer_2" data-name="Layer 2"><g id="Layer_1-2" data-name="Layer 1"><path class="cls-1" d="M8.43,3.5V2.78h2V3.5a.7.7,0,0,0,.69.69h.17A.7.7,0,0,0,12,3.5V2.78h2V3.5a.7.7,0,0,0,.69.69h.17a.7.7,0,0,0,.69-.69V2.78H16l1.32,1.29V6.14h1.39V3.49l-2.14-2.1h-1V.69A.7.7,0,0,0,14.91,0h-.17A.7.7,0,0,0,14,.69v.7H12V.69A.7.7,0,0,0,11.32,0h-.17a.7.7,0,0,0-.69.69v.7h-2V.69A.7.7,0,0,0,7.73,0H7.56a.7.7,0,0,0-.69.69v.7h-2V.69A.7.7,0,0,0,4.15,0H4a.7.7,0,0,0-.69.69v.7H0V22.15H6.12l.35-1.38H1.39v-18H3.28V3.5A.7.7,0,0,0,4,4.19h.17a.7.7,0,0,0,.69-.69V2.78h2V3.5a.7.7,0,0,0,.69.69h.17A.7.7,0,0,0,8.43,3.5Z"/><path class="cls-1" d="M21.74,10.52,19.52,8.31a1.38,1.38,0,0,0-1.94,0h0L9.48,16.36l-.16.16-1.4,5.58,5.59-1.4.52-.53h0l7.73-7.72h0A1.37,1.37,0,0,0,21.74,10.52ZM9.9,17.09l3.05,3-2.87.72-.9-.94Zm3.62,1.16-1.73-1.73,5.8-5.79,1.73,1.73Z"/></g></g></svg>