<svg xmlns="http://www.w3.org/2000/svg" viewBox="0 0 22.15 22.15"><defs><style>.cls-1{fill:#999;}</style></defs><title>Asset 9</title><g id="Layer_2" data-name="Layer 2"><g id="Layer_1-2" data-name="Layer 1"><path class="cls-1" d="M22.15,4.08a4.12,4.12,0,0,0-7.31-2.57l5.83,5.74A4.09,4.09,0,0,0,22.15,4.08Z"/><path class="cls-1" d="M1.46,7.32,7.23,1.5A4.11,4.11,0,1,0,1.46,7.32Z"/><path class="cls-1" d="M12.49,6a.87.87,0,0,0-1.73,0v5.56L7.49,9.91a1.21,1.21,0,1,0-1.08,2.17l4.43,2.18a1.22,1.22,0,0,0,1.63-.55,1.2,1.2,0,0,0,0-1Z"/><path class="cls-1" d="M19.54,17.58A10,10,0,0,0,11.1,2.11H11A10,10,0,0,0,2.86,17.88L.78,20a.69.69,0,0,0,1,1l2-2a10,10,0,0,0,7.36,3.19h.06a10,10,0,0,0,7.54-3.46l2.15,2.12a.69.69,0,1,0,1-1Zm-8.39,2.84H11.1a8.33,8.33,0,0,1-8.32-8.24A8.31,8.31,0,0,1,11,3.84h.05a8.33,8.33,0,0,1,8.32,8.24,8.31,8.31,0,0,1-8.27,8.34Z"/></g></g></svg>